<?xml version="1.0" standalone="no"?><!DOCTYPE svg PUBLIC "-//W3C//DTD SVG 1.1//EN" "http://www.w3.org/Graphics/SVG/1.1/DTD/svg11.dtd"><svg class="icon" width="200px" height="200.00px" viewBox="0 0 1024 1024" version="1.1" xmlns="http://www.w3.org/2000/svg"><path d="M47.786667 677.546667c20.821333 18.773333 48.810667 4.096 62.805333 6.144 13.994667 2.048 43.690667-17.749333 56.661333-19.114667 12.970667-1.706667 122.88-10.922667 181.930667-37.888l-37.888-37.888s-4.778667-17.749333 6.144-25.258667c10.922667-7.168 30.037333-5.12 44.032-12.288s58.709333-51.2 94.208-50.176c35.157333 0.682667 79.189333 25.258667 94.208 25.258667s33.109333-44.032 163.157333-44.032c130.048 0 188.074667 158.037333 188.074667 158.037333l-12.288 25.258667s-9.216 32.768 0 37.888 37.888-11.946667 56.661333 19.114667c18.773333 30.72 31.744 50.176 31.744 50.176s25.258667-62.805333 12.288-101.034667c-12.970667-38.229333-44.032-40.96-56.661333-69.290667-12.288-28.672-35.157333-201.045333-169.642667-296.96-134.144-95.914667-249.856-82.944-263.850666-95.232-14.677333-12.288-18.773333-39.936-18.773334-69.290666 0-29.696 18.773333-101.034667 18.773334-101.034667S438.613333 20.138667 411.306667 109.226667c-26.965333 89.088-23.893333 122.88-50.176 138.922666C300.714667 286.72 243.712 330.752 191.829333 380.586667 122.538667 446.805333 81.92 485.376 66.56 525.653333c-15.701333 40.277333-33.792 99.669333-31.744 113.664 2.048 13.994667-8.192 19.456 12.970667 38.229334z m81.578666-252.928l81.237334-75.776-6.144-50.176s-49.834667 21.845333-62.805334 50.176c-12.970667 28.672-12.288 75.776-12.288 75.776z m201.045334 151.893333c0.682667 0 46.762667 59.733333 153.258666 60.074667 106.154667 0.682667 154.624-72.704 154.624-72.704s-93.184-18.090667-106.837333-25.258667c-13.312-7.168-28.672-29.013333-62.805333-25.258667-34.133333 3.754667-66.901333 20.821333-68.949334 31.744-2.389333 10.581333-69.290667 31.402667-69.290666 31.402667z m-100.693334-57.002667c13.312-9.216 25.941333-23.210667 52.224-27.989333 26.965333-4.778667 44.032 2.048 48.128 9.216 4.096 7.168-6.144 25.941333-24.917333 43.690667-12.288 10.922667-27.989333 17.749333-44.714667 19.797333-39.253333 7.168-37.205333 5.12-44.032 0-5.802667-5.802667 0-35.498667 13.312-44.714667zM204.8 582.656h18.773333l6.144 6.144-24.917333 6.144v-12.288z m24.917333 37.888c26.965333-9.898667 54.954667-39.936 68.949334-31.744 13.994667 8.192 37.888 37.888 37.888 37.888L167.253333 658.432s-92.842667 23.210667-95.232 15.701333c-2.730667-7.850667 13.312-9.216 36.181334-12.288 22.869333-2.730667 14.677333-17.749333 56.661333-24.234666 40.96-6.826667 37.888-7.168 64.853333-17.066667z m301.738667-107.178667s89.088-104.106667 175.786667-107.178666c86.698667-3.072 143.018667 75.776 147.797333 96.938666 1.706667 7.168-66.901333-44.714667-84.992-49.834666-15.701333-4.096-39.253333 2.730667-39.253333 2.730666s37.205333 8.192 58.026666 20.138667c20.821333 11.946667 40.277333 39.253333 40.277334 39.253333S754.346667 470.698667 706.56 468.650667c-29.696-1.024-59.050667 3.754667-87.04 12.970666 0 0-50.858667 27.306667-62.805333 31.744-8.533333 2.048-17.408 2.048-25.258667 0z m250.88 189.098667s13.312-37.888 31.744-31.744c18.090667 6.144 44.032 12.288 44.032 12.288s24.917333-8.192 24.917333-25.258667c0.682667-17.066667-18.773333-63.146667-18.773333-63.146666s-70.997333 26.282667-81.237333 57.002666c-10.581333 30.72-0.682667 50.858667-0.682667 50.858667z m31.744-69.290667c26.282667-20.821333 44.032-25.258667 44.032-25.258666 5.12 11.946667 9.216 24.234667 12.288 36.864 2.730667 13.312-3.072 26.282667-12.288 26.282666-11.264 0-33.792-4.096-49.834667-5.12-7.850667 0-15.701333 4.096-19.114666 11.264-0.682667 0.341333-1.706667-22.869333 24.917333-44.032z m0 0" fill="#68A490" /><path d="M860.16 873.130667v25.258666h117.76v32.085334H860.16v25.258666h123.904v31.744h-155.648v-146.090666h159.061333v31.744H860.16z m-187.050667 25.258666h107.861334s31.744 12.970667 31.744 44.714667c0 31.061333-31.744 44.714667-31.744 44.714667h-136.874667v-31.744h130.048c7.168-5.12 8.192-15.018667 3.072-22.186667l-3.072-3.072h-107.861333s-28.672-8.192-28.672-44.714667 28.672-44.714667 28.672-44.714666h139.946666v28.672H672.426667c-4.778667 4.096-6.826667 9.898667-6.144 16.042666 0 10.581333 6.826667 12.288 6.826666 12.288z m-92.501333-60.074666h-105.130667c-28.672 0-38.229333 34.816-38.229333 34.816v114.688h35.157333v-47.786667H583.68v47.786667h34.816v-117.76s-12.970667-31.744-37.888-31.744z m3.072 40.96v25.258666h-111.274667v-25.258666c2.048-3.754667 5.802667-5.802667 9.898667-6.144h92.16c3.754667 0.341333 7.168 3.072 9.216 6.144z m-393.898667 51.2H72.362667v57.002666h-32.085334v-149.162666h32.085334v60.074666h117.76v-60.074666H221.866667v149.162666h-31.744v-57.002666z m217.770667-17.408c7.168-9.898667 11.264-21.845333 11.264-34.133334 0-20.821333-22.869333-40.277333-22.869333-40.277333H241.322667v149.162667h154.965333c14.677333-5.12 24.234667-19.114667 23.893333-34.816 0-27.648-12.629333-39.936-12.629333-39.936z m-22.869333 45.397333H269.653333v-22.869333h114.688c3.754667 2.048 5.802667 6.144 5.802667 10.24 0 5.461333-2.389333 9.557333-5.461333 12.629333z m0-62.805333H269.653333v-22.869334h114.688c3.754667 2.048 5.802667 6.144 5.802667 10.24 0 5.12-2.389333 9.216-5.461333 12.629334z m0 0" fill="#818181" /></svg>