<?xml version="1.0" standalone="no"?><!DOCTYPE svg PUBLIC "-//W3C//DTD SVG 1.1//EN" "http://www.w3.org/Graphics/SVG/1.1/DTD/svg11.dtd"><svg t="1718616699881" class="icon" viewBox="0 0 1024 1024" version="1.1" xmlns="http://www.w3.org/2000/svg" p-id="146995" xmlns:xlink="http://www.w3.org/1999/xlink" width="80" height="80"><path d="M491.549272 522.798849m-345.582368 345.582369a488.727273 488.727273 0 1 0 691.164737-691.164737 488.727273 488.727273 0 1 0-691.164737 691.164737Z" fill="#AE0A29" p-id="146996"></path><path d="M699.129082 479.782073a21.550545 21.550545 0 0 1-21.393195-21.393195l-0.032912-54.075412-107.262185 105.94568a21.410909 21.410909 0 0 1-30.345423-30.345423l107.32801-105.94568-54.0425 0.065825a21.504 21.504 0 0 1 0.032913-42.950952l105.781117 0a14.242909 14.242909 0 0 1 3.258348 0.62534l1.64563 0.394951a23.412364 23.412364 0 0 0 3.192523 0.559514 21.550545 21.550545 0 0 1 11.914364 12.770092c0.065825 0.724077 0.197476 1.382329 0.394951 2.106407l0.427864 1.744368a14.242909 14.242909 0 0 1 0.658252 3.15961l-0.032913 105.748205a21.504 21.504 0 0 1-21.524844 21.59067z m-333.437617 175.917882l0.032912-54.009588a21.504 21.504 0 0 0-42.885126-0.032912L322.872164 707.471485a14.242909 14.242909 0 0 0 0.625339 3.258348l0.460777 1.711455a15.36 15.36 0 0 1 0.394951 2.040582 20.992 20.992 0 0 0 11.881451 12.803004 32.581818 32.581818 0 0 1 3.192523 0.559514l1.711455 0.394951c0.987378 0.329126 2.106407 0.526602 3.225436 0.592427l105.715292 0a21.410909 21.410909 0 1 0 0.032913-42.885126l-54.0425 0 98.606169-95.314909a21.410909 21.410909 0 1 0-30.345423-30.213772l-98.60617 95.314908z" fill="#FFFFFF" p-id="146997"></path></svg>