<?xml version="1.0" standalone="no"?><!DOCTYPE svg PUBLIC "-//W3C//DTD SVG 1.1//EN" "http://www.w3.org/Graphics/SVG/1.1/DTD/svg11.dtd"><svg t="1718612129318" class="icon" viewBox="0 0 1024 1024" version="1.1" xmlns="http://www.w3.org/2000/svg" p-id="100668" xmlns:xlink="http://www.w3.org/1999/xlink" width="80" height="80"><path d="M511.957334 1023.997867a508.712547 508.712547 0 0 1-362.067825-149.930042A508.840546 508.840546 0 0 1-0.040533 512a508.712547 508.712547 0 0 1 149.930042-361.982492A508.584548 508.584548 0 0 1 511.957334 0.002133a512.552531 512.552531 0 0 1 511.997866 511.997867 508.755214 508.755214 0 0 1-149.972708 362.067825A508.712547 508.712547 0 0 1 511.957334 1023.997867zM698.452557 354.133991l-47.786468 55.16777 113.407527 101.503577-116.308848 103.807568 47.957133 55.125103 146.858055-131.071453a37.973175 37.973175 0 0 0 12.202616-27.818551 38.015842 38.015842 0 0 0-12.202616-27.861217L698.452557 354.176658z m-373.033113 0l-143.9994 128.81013a37.717176 37.717176 0 0 0-12.330615 27.861217 37.119845 37.119845 0 0 0 12.330615 27.690552l146.730055 131.199453 47.957134-55.125104-116.138183-103.807567 113.279528-101.375578-47.829134-55.466435z m228.137716 10.666622l-148.308715 259.881584 62.591739 36.906513 148.308715-260.05225-62.591739-36.735847z" fill="#26BD71" p-id="100669"></path></svg>