<?xml version="1.0" standalone="no"?><!DOCTYPE svg PUBLIC "-//W3C//DTD SVG 1.1//EN" "http://www.w3.org/Graphics/SVG/1.1/DTD/svg11.dtd"><svg t="1718620858316" class="icon" viewBox="0 0 1024 1024" version="1.1" xmlns="http://www.w3.org/2000/svg" p-id="120623" xmlns:xlink="http://www.w3.org/1999/xlink" width="80" height="80"><path d="M170.432 0h683.136A170.432 170.432 0 0 1 1024 170.432v683.136A170.432 170.432 0 0 1 853.568 1024H170.432A170.432 170.432 0 0 1 0 853.568V170.432A170.432 170.432 0 0 1 170.432 0z m0 57.024A112.64 112.64 0 0 0 57.024 170.432v683.136a112.64 112.64 0 0 0 113.344 113.344h683.2a112.64 112.64 0 0 0 113.344-113.344V170.432A112.64 112.64 0 0 0 853.568 57.024z" fill="#1D2683" p-id="120624"></path><path d="M338.112 314.56c0 48.448-43.712 200 135.872 220.416 78.464 19.2 98.496 61.12 91.712 187.392 0 10.176-0.512 20.352-1.28 30.464a322.624 322.624 0 0 1-58.176 28.224c1.792-17.472 20.16-155.456-17.408-187.648a166.4 166.4 0 0 0-102.4-41.536 219.136 219.136 0 0 1-70.4-34.368 101.824 101.824 0 0 1-39.104-69.696 464.832 464.832 0 0 1-2.304-76.8 347.776 347.776 0 0 1 63.296-56.128z m75.136-46.528c-1.216 17.536-26.56 169.664 46.144 205.696a248.064 248.064 0 0 0 56.384 23.104 187.136 187.136 0 0 1 85.824 33.024 126.592 126.592 0 0 1 26.624 41.728 338.56 338.56 0 0 1 12.416 105.92v30.272a282.112 282.112 0 0 1-53.824 35.968 494.72 494.72 0 0 0-11.072-156.416c-17.856-39.488-37.056-58.112-68.864-62.72a239.872 239.872 0 0 1-103.68-37.44 122.048 122.048 0 0 1-47.36-93.568q0-47.104 2.112-90.496a267.584 267.584 0 0 1 55.36-35.136z m76.352-36.8a511.104 511.104 0 0 0 8.576 160.64 108.8 108.8 0 0 0 83.712 73.664c35.776 6.4 99.328 29.376 115.2 70.4a204.224 204.224 0 0 1 16.128 78.144v32.896a467.2 467.2 0 0 1-52.096 45.248 380.48 380.48 0 0 0-15.424-142.144 104.448 104.448 0 0 0-78.72-61.568 180.032 180.032 0 0 1-116.544-54.08 193.92 193.92 0 0 1-20.032-126.72l4.544-49.856a391.296 391.296 0 0 1 54.72-26.688z" fill="#E8130D" p-id="120625"></path><path d="M245.44 388.352a448 448 0 0 0 8.448 74.688 136.576 136.576 0 0 0 49.984 70.848 264.192 264.192 0 0 0 89.792 35.2 228.928 228.928 0 0 1 65.152 20.736c21.952 15.488 33.152 30.528 33.984 45.184a492.288 492.288 0 0 1-14.72 159.424c-67.072 43.968-344.128 48.512-349.952-121.216a356.8 356.8 0 0 1 117.312-284.864z m620.8-121.6q90.816 140.096-97.536 357.504a201.984 201.984 0 0 0-3.2-32.512c-15.36-73.856-43.2-105.856-77.376-119.104s-133.568-14.72-152.832-89.152a446.08 446.08 0 0 1 6.4-166.4q231.808-69.12 324.864 48.96z" fill="#1D2683" p-id="120626"></path></svg>