<?xml version="1.0" standalone="no"?><!DOCTYPE svg PUBLIC "-//W3C//DTD SVG 1.1//EN" "http://www.w3.org/Graphics/SVG/1.1/DTD/svg11.dtd"><svg t="1718620529697" class="icon" viewBox="0 0 1024 1024" version="1.1" xmlns="http://www.w3.org/2000/svg" p-id="87180" xmlns:xlink="http://www.w3.org/1999/xlink" width="80" height="80"><path d="M910.222222 0a113.777778 113.777778 0 0 1 113.777778 113.777778v796.444444a113.777778 113.777778 0 0 1-113.777778 113.777778H113.777778a113.777778 113.777778 0 0 1-113.777778-113.777778V113.777778a113.777778 113.777778 0 0 1 113.777778-113.777778h796.444444z m0 56.888889H113.777778a56.888889 56.888889 0 0 0-56.490667 50.232889L56.888889 113.777778v796.444444a56.888889 56.888889 0 0 0 50.232889 56.490667L113.777778 967.111111h796.444444a56.888889 56.888889 0 0 0 56.490667-50.232889L967.111111 910.222222V113.777778a56.888889 56.888889 0 0 0-50.232889-56.490667L910.222222 56.888889z" fill="#16A8CC" p-id="87181"></path><path d="M297.528889 336.099556l177.720889 157.866666a22.926222 22.926222 0 0 1 7.850666 17.066667 22.926222 22.926222 0 0 1-7.736888 17.066667L297.528889 688.355556a25.6 25.6 0 0 1-26.737778 4.551111 23.438222 23.438222 0 0 1-14.848-21.617778V353.393778c0-9.329778 5.802667-17.749333 14.791111-21.504a25.6 25.6 0 0 1 26.737778 4.380444v-0.113778z" fill="#5267AC" p-id="87182"></path><path d="M370.176 197.006222a124.700444 124.700444 0 0 1 159.687111 5.290667l71.850667 65.365333a96.711111 96.711111 0 0 1 32.142222 70.200889c0.398222 26.510222-10.467556 52.110222-30.151111 70.997333l-57.685333 55.182223a25.6 25.6 0 0 1-34.474667 0.455111L365.340444 332.231111a88.348444 88.348444 0 0 1-29.411555-68.608c0.910222-25.827556 13.368889-50.062222 34.247111-66.56z" fill="#16A8CC" p-id="87183"></path><path d="M350.833778 699.392c210.773333-186.766222 319.943111-286.264889 327.566222-298.552889 7.566222-12.288 12.686222-29.411556 15.303111-51.370667l91.932445 87.893334c23.04 21.617778 35.896889 42.666667 38.684444 63.431111 2.730667 20.650667-4.209778 44.373333-20.878222 71.168l-303.217778 276.593778c-56.888889 12.288-102.741333 0.910222-137.671111-33.962667-34.986667-34.872889-38.912-73.272889-11.719111-115.2z" fill="#51CBA4" p-id="87184"></path></svg>