<?xml version="1.0" standalone="no"?><!DOCTYPE svg PUBLIC "-//W3C//DTD SVG 1.1//EN" "http://www.w3.org/Graphics/SVG/1.1/DTD/svg11.dtd"><svg t="1719307209039" class="icon" viewBox="0 0 1024 1024" version="1.1" xmlns="http://www.w3.org/2000/svg" p-id="15139" xmlns:xlink="http://www.w3.org/1999/xlink" width="80" height="80"><path d="M512 512m-448 0a448 448 0 1 0 896 0 448 448 0 1 0-896 0Z" fill="#5BA1E7" p-id="15140"></path><path d="M746.38 308L585.32 491a65.23 65.23 0 0 0-16.25 43.11v252.65c0 14.78-18.14 22-28.23 11.11l-81.52-87.33a16.29 16.29 0 0 1-4.39-11.11V534.14a65 65 0 0 0-16.25-43.06L277.62 308c-9.27-10.5-1.78-27.06 12.23-27.06h444.3c14.01-0.04 21.5 16.52 12.23 27.06z" fill="#FFFFFF" p-id="15141"></path></svg>