<?xml version="1.0" standalone="no"?><!DOCTYPE svg PUBLIC "-//W3C//DTD SVG 1.1//EN" "http://www.w3.org/Graphics/SVG/1.1/DTD/svg11.dtd"><svg t="1718620500469" class="icon" viewBox="0 0 1024 1024" version="1.1" xmlns="http://www.w3.org/2000/svg" p-id="85980" xmlns:xlink="http://www.w3.org/1999/xlink" width="80" height="80"><path d="M170.432 0h683.136A170.432 170.432 0 0 1 1024 170.432v683.136A170.432 170.432 0 0 1 853.568 1024H170.432A170.432 170.432 0 0 1 0 853.568V170.432A170.432 170.432 0 0 1 170.432 0z m0 57.024A112.64 112.64 0 0 0 57.024 170.432v683.136a112.64 112.64 0 0 0 113.344 113.344h683.2a112.64 112.64 0 0 0 113.344-113.344V170.432A112.64 112.64 0 0 0 853.568 57.024z" fill="#0C84CA" p-id="85981"></path><path d="M319.552 728.128V640.64a140.8 140.8 0 0 1-0.448-280.192V271.296a71.36 71.36 0 0 1-51.712-44.8 94.208 94.208 0 0 1-1.856-46.528 70.016 70.016 0 0 1 74.624-51.84 72.896 72.896 0 0 1 66.688 57.6c7.232 38.848-11.328 66.816-58.304 86.656v86.848a147.2 147.2 0 0 1 124.544 101.696l175.104-84.544a106.112 106.112 0 0 1 193.152-86.592 102.4 102.4 0 0 1-30.848 131.008 108.8 108.8 0 0 1-147.2-20.16l-84.48 40.768c-29.184 14.016-58.24 28.224-87.68 41.856a19.2 19.2 0 0 0-13.952 19.84 373.44 373.44 0 0 1-5.824 46.656l179.2 86.272a109.632 109.632 0 0 1 73.792-59.968 105.408 105.408 0 0 1 127.36 78.784 104.256 104.256 0 0 1-87.616 123.776 102.784 102.784 0 0 1-118.912-89.6 41.088 41.088 0 0 0-29.248-39.616c-49.024-22.08-96.96-46.336-145.792-68.864a21.248 21.248 0 0 0-19.2 1.536 149.312 149.312 0 0 1-101.12 57.6v88.256c47.808 22.848 65.408 50.496 56.448 89.6a73.728 73.728 0 0 1-142.976-1.152c-8.768-37.44 9.344-65.728 56.256-88.064z m0 0" fill="#0C84CA" p-id="85982"></path></svg>