<?xml version="1.0" standalone="no"?><!DOCTYPE svg PUBLIC "-//W3C//DTD SVG 1.1//EN" "http://www.w3.org/Graphics/SVG/1.1/DTD/svg11.dtd"><svg t="1718620742553" class="icon" viewBox="0 0 1024 1024" version="1.1" xmlns="http://www.w3.org/2000/svg" p-id="110191" xmlns:xlink="http://www.w3.org/1999/xlink" width="80" height="80"><path d="M182.9 36.6h658.3c80.8 0 146.3 65.5 146.3 146.3v658.3c0 80.8-65.5 146.3-146.3 146.3H182.9c-80.8 0-146.3-65.5-146.3-146.3V182.9c0-80.8 65.5-146.3 146.3-146.3z" fill="#FF5C5C" p-id="110192"></path><path d="M650.2 365.7c75 0.2 135.8 61 136 136v20.5c-0.2 75-61 135.8-136 136H373.8c-75-0.2-135.8-61-136-136v-20.4c0.2-75 61-135.8 136-136l276.4-0.1m0-36.5H373.8c-95.1 0.4-172.2 77.4-172.6 172.6v20.5c0.4 95.2 77.5 172.2 172.6 172.6h276.5c95.2-0.4 172.2-77.5 172.6-172.6v-20.5c-0.4-95.2-77.5-172.3-172.7-172.6z" fill="#FFFFFF" p-id="110193"></path></svg>