<?xml version="1.0" standalone="no"?><!DOCTYPE svg PUBLIC "-//W3C//DTD SVG 1.1//EN" "http://www.w3.org/Graphics/SVG/1.1/DTD/svg11.dtd"><svg t="1718620796817" class="icon" viewBox="0 0 1024 1024" version="1.1" xmlns="http://www.w3.org/2000/svg" p-id="115794" xmlns:xlink="http://www.w3.org/1999/xlink" width="80" height="80"><path d="M213.333333 64h597.333334c98.133333 0 149.333333 51.2 149.333333 149.333333v597.333334c0 98.133333-51.2 149.333333-149.333333 149.333333H213.333333c-98.133333 0-149.333333-51.2-149.333333-149.333333V213.333333c0-98.133333 51.2-149.333333 149.333333-149.333333z" fill="#5E8EC5" p-id="115795"></path><path d="M567.466667 819.2c-29.866667 0-55.466667-21.333333-64-51.2v-4.266667c-8.533333-25.6-8.533333-46.933333-8.533334-72.533333v-34.133333c-25.6 12.8-51.2 17.066667-81.066666 8.533333-12.8-4.266667-25.6-8.533333-34.133334-21.333333-12.8 12.8-34.133333 21.333333-51.2 17.066666C251.733333 631.466667 213.333333 392.533333 213.333333 371.2c-4.266667-64 12.8-110.933333 51.2-136.533333 59.733333-42.666667 153.6-17.066667 183.466667-4.266667 21.333333-12.8 51.2-21.333333 76.8-21.333333 17.066667 0 29.866667 0 46.933333 4.266666 29.866667-12.8 149.333333-34.133333 221.866667 55.466667 34.133333 42.666667 0 183.466667-68.266667 294.4 17.066667 0 29.866667 0 42.666667-4.266667 12.8-8.533333 29.866667 0 38.4 12.8 8.533333 29.866667-38.4 51.2-46.933333 55.466667-21.333333 8.533333-46.933333 12.8-68.266667 12.8H682.666667v17.066667c-4.266667 119.466667-34.133333 149.333333-93.866667 162.133333h-21.333333zM426.666667 588.8l-8.533334 8.533333c8.533333 0 17.066667-4.266667 21.333334-8.533333H426.666667z" fill="#FFFFFF" p-id="115796"></path><path d="M793.6 580.266667c-4.266667-8.533333-8.533333-8.533333-21.333333-8.533334-46.933333 8.533333-64 4.266667-68.266667-4.266666 76.8-115.2 106.666667-256 76.8-294.4l-4.266667-4.266667c-12.8-12.8-29.866667-25.6-51.2-38.4-8.533333-4.266667-17.066667-8.533333-29.866666-8.533333-8.533333-4.266667-17.066667-4.266667-29.866667-4.266667H610.133333c-8.533333 0-12.8 0-21.333333 4.266667l-17.066667 4.266666h-8.533333-38.4c-25.6 0-55.466667 4.266667-76.8 21.333334-17.066667-8.533333-119.466667-42.666667-179.2 0-34.133333 21.333333-51.2 59.733333-46.933333 119.466666 0 29.866667 42.666667 251.733333 106.666666 273.066667h8.533334c12.8 0 25.6-8.533333 34.133333-21.333333 21.333333-29.866667 42.666667-51.2 51.2-55.466667 12.8 8.533333 25.6 8.533333 38.4 8.533333v4.266667l-8.533333 8.533333c-8.533333 12.8-21.333333 21.333333-38.4 21.333334-12.8 0-21.333333 8.533333-25.6 17.066666 4.266667 12.8 12.8 21.333333 25.6 21.333334 8.533333 4.266667 17.066667 4.266667 25.6 4.266666 21.333333 0 42.666667-8.533333 59.733333-25.6-4.266667 42.666667 0 89.6 8.533333 132.266667 8.533333 25.6 29.866667 46.933333 59.733334 46.933333 8.533333 0 12.8 0 21.333333-4.266666 38.4-4.266667 68.266667-34.133333 68.266667-72.533334 4.266667-25.6 12.8-81.066667 12.8-110.933333 8.533333 4.266667 17.066667 4.266667 25.6 4.266667 17.066667 0 38.4-4.266667 55.466666-12.8 25.6 4.266667 46.933333-12.8 42.666667-25.6z" fill="#1D5982" p-id="115797"></path><path d="M691.2 465.066667c4.266667 25.6 4.266667 51.2-8.533333 72.533333-4.266667-4.266667-4.266667-8.533333-8.533334-12.8 0-4.266667-4.266667-8.533333-8.533333-17.066667-17.066667-29.866667-51.2-93.866667-34.133333-119.466666 8.533333-12.8 29.866667-17.066667 59.733333-12.8 0 8.533333 0 17.066667-4.266667 25.6 0 8.533333-4.266667 21.333333-4.266666 29.866666 4.266667 12.8 8.533333 25.6 8.533333 34.133334z m81.066667-179.2c21.333333 29.866667 0 157.866667-72.533334 273.066666l-4.266666-4.266666v-4.266667c12.8-25.6 17.066667-55.466667 12.8-85.333333 0-8.533333-4.266667-21.333333-4.266667-29.866667 0-8.533333 0-17.066667 4.266667-25.6 0-12.8 4.266667-21.333333 4.266666-34.133333v-4.266667c-17.066667-59.733333-59.733333-106.666667-115.2-132.266667 29.866667-12.8 119.466667-25.6 174.933334 46.933334z m-405.333334 332.8c-4.266667 12.8-17.066667 17.066667-29.866666 12.8-51.2-17.066667-98.133333-221.866667-98.133334-260.266667-4.266667-55.466667 8.533333-93.866667 38.4-115.2 51.2-34.133333 132.266667-12.8 157.866667 0 0 0-4.266667 0-4.266667 4.266667C379.733333 307.2 384 396.8 384 396.8v81.066667c-4.266667 25.6 4.266667 55.466667 25.6 76.8l8.533333 8.533333c-8.533333 8.533333-29.866667 29.866667-51.2 55.466667z m51.2-72.533334c-17.066667-17.066667-25.6-42.666667-21.333333-64 4.266667-25.6 4.266667-51.2 0-76.8v-4.266666c21.333333-12.8 42.666667-21.333333 68.266667-21.333334 12.8 4.266667 21.333333 12.8 21.333333 25.6 12.8 38.4 8.533333 81.066667-8.533333 119.466667 0 4.266667-4.266667 8.533333-4.266667 12.8v4.266667c-4.266667 8.533333-4.266667 17.066667-8.533333 25.6-17.066667 0-38.4-8.533333-46.933334-21.333334z m4.266667 89.6c-4.266667 0-12.8-4.266667-17.066667-8.533333 4.266667-4.266667 8.533333-4.266667 17.066667-4.266667 17.066667 0 34.133333-8.533333 46.933333-25.6 4.266667-4.266667 4.266667-8.533333 8.533334-12.8 0-4.266667 4.266667-4.266667 8.533333-4.266666h4.266667c4.266667 4.266667 8.533333 8.533333 8.533333 12.8v12.8c-17.066667 29.866667-51.2 42.666667-76.8 29.866666z m226.133333 98.133334c0 34.133333-25.6 59.733333-59.733333 59.733333-25.6 8.533333-55.466667-8.533333-64-34.133333-8.533333-51.2-8.533333-102.4-8.533333-153.6 0-12.8-8.533333-21.333333-21.333334-29.866667-4.266667-4.266667-12.8-4.266667-21.333333 0 0-8.533333 4.266667-21.333333 8.533333-29.866667v-4.266666c0-4.266667 4.266667-8.533333 4.266667-12.8 21.333333-38.4 21.333333-85.333333 8.533333-128-4.266667-25.6-25.6-38.4-51.2-38.4h-4.266666c-8.533333 4.266667-25.6 8.533333-42.666667 21.333333 0-42.666667 17.066667-85.333333 42.666667-115.2 21.333333-21.333333 51.2-34.133333 81.066666-29.866667 76.8 4.266667 145.066667 55.466667 170.666667 128-34.133333-4.266667-55.466667 0-68.266667 17.066667-25.6 34.133333 12.8 102.4 29.866667 136.533333 4.266667 8.533333 4.266667 12.8 8.533333 12.8 4.266667 12.8 12.8 21.333333 17.066667 29.866667l8.533333 8.533333c-17.066667 4.266667-29.866667 21.333333-25.6 38.4 0 17.066667-8.533333 93.866667-12.8 123.733334z m102.4-128c-25.6 8.533333-51.2 12.8-72.533333 4.266666 0-21.333333 8.533333-25.6 17.066667-29.866666h4.266666l4.266667 4.266666c25.6 8.533333 51.2 12.8 72.533333 4.266667h8.533334c-12.8 4.266667-21.333333 12.8-34.133334 17.066667z m-273.066666-204.8c0-4.266667-8.533333-8.533333-12.8-8.533334h-12.8v4.266667c0 4.266667 0 4.266667 4.266666 8.533333s8.533333 8.533333 12.8 8.533334c0-4.266667 4.266667-8.533333 8.533334-12.8z m183.466666-17.066667c-4.266667 0-12.8 4.266667-12.8 8.533333 4.266667 4.266667 8.533333 8.533333 12.8 8.533334 8.533333 0 12.8-4.266667 12.8-12.8 0-4.266667-8.533333-4.266667-12.8-4.266667z" fill="#FFFFFF" p-id="115798"></path></svg>