<?xml version="1.0" standalone="no"?><!DOCTYPE svg PUBLIC "-//W3C//DTD SVG 1.1//EN" "http://www.w3.org/Graphics/SVG/1.1/DTD/svg11.dtd"><svg t="1718616768270" class="icon" viewBox="0 0 1024 1024" version="1.1" xmlns="http://www.w3.org/2000/svg" p-id="155173" xmlns:xlink="http://www.w3.org/1999/xlink" width="80" height="80"><path d="M512 512m-512 0a512 512 0 1 0 1024 0 512 512 0 1 0-1024 0Z" fill="#D65351" p-id="155174"></path><path d="M712.167619 268.190476a8.777143 8.777143 0 0 1 8.533333 8.777143v202.361905h25.6a9.752381 9.752381 0 0 1 9.508572 9.508571v189.927619a9.752381 9.752381 0 0 1-9.508572 9.508572h-25.6v58.758095a8.777143 8.777143 0 0 1-8.533333 8.777143H311.588571a8.777143 8.777143 0 0 1-8.777142-8.777143v-58.758095h-24.380953a9.508571 9.508571 0 0 1-9.508571-9.508572v-189.927619a9.752381 9.752381 0 0 1 9.508571-9.508571h24.380953v-202.361905a8.777143 8.777143 0 0 1 8.777142-8.777143z m-26.331429 420.08381H337.67619v32.670476h348.16v-32.670476z m-164.327619-191.390476a44.617143 44.617143 0 0 0-39.253333 21.699047 110.933333 110.933333 0 0 0-14.384762 60.952381 110.933333 110.933333 0 0 0 14.384762 60.952381 45.348571 45.348571 0 0 0 39.984762 21.699048 43.641905 43.641905 0 0 0 24.380952-7.070477l14.872381 14.384762h2.194286a8.777143 8.777143 0 0 0 6.582857 0 7.558095 7.558095 0 0 0 4.632381-4.87619l3.900953-10.24a8.533333 8.533333 0 0 0-3.169524-10.48381 74.849524 74.849524 0 0 1-11.459048-9.99619 59.001905 59.001905 0 0 0 7.314286-18.773333 140.678095 140.678095 0 0 0 3.900952-36.327619 110.933333 110.933333 0 0 0-14.384762-60.952381 44.373333 44.373333 0 0 0-39.009524-21.942858z m-116.297142 0a48.761905 48.761905 0 0 0-24.380953 5.851428 37.790476 37.790476 0 0 0-15.847619 16.822857 55.100952 55.100952 0 0 0-5.363809 24.380953 51.931429 51.931429 0 0 0 11.459047 34.377142 66.56 66.56 0 0 0 28.769524 16.579048l20.236191 7.314286a21.942857 21.942857 0 0 1 9.264761 7.070476 17.066667 17.066667 0 0 1 2.681905 10.24 22.674286 22.674286 0 0 1-6.339047 16.335238 24.380952 24.380952 0 0 1-18.529524 7.070476 24.380952 24.380952 0 0 1-18.285715-7.801904 39.497143 39.497143 0 0 1-7.801904-16.822858 8.777143 8.777143 0 0 0-9.508572-6.826666l-8.045714 1.219047a8.289524 8.289524 0 0 0-7.314286 9.996191 56.32 56.32 0 0 0 14.140953 33.889524 46.08 46.08 0 0 0 36.571428 14.872381 55.100952 55.100952 0 0 0 27.062857-6.095239 40.96 40.96 0 0 0 17.066667-18.773333 60.952381 60.952381 0 0 0 6.095238-27.062857 64.121905 64.121905 0 0 0-5.12-26.819048 41.20381 41.20381 0 0 0-13.897143-17.066666 100.937143 100.937143 0 0 0-27.306666-12.190476 58.270476 58.270476 0 0 1-24.380953-11.215239 16.091429 16.091429 0 0 1-3.657143-10.24 13.653333 13.653333 0 0 1 4.144762-10.483809 24.380952 24.380952 0 0 1 17.554286-6.095238 22.186667 22.186667 0 0 1 16.091429 5.607619 28.038095 28.038095 0 0 1 5.607619 11.459047 8.533333 8.533333 0 0 0 8.777142 6.826667h9.020953a8.533333 8.533333 0 0 0 5.851428-3.413333 8.533333 8.533333 0 0 0 1.706667-6.339048 50.712381 50.712381 0 0 0-10.483809-27.550476 44.373333 44.373333 0 0 0-35.84-14.140952z m219.428571 0h-17.310476a8.777143 8.777143 0 0 0-8.777143 8.533333v156.769524a8.777143 8.777143 0 0 0 8.777143 8.777143h52.175238a8.777143 8.777143 0 0 0 8.777143-8.777143v-17.310477a8.777143 8.777143 0 0 0-8.777143-8.777142H633.904762v-130.681905a8.777143 8.777143 0 0 0-9.264762-8.533333z m-103.375238 27.306666a25.84381 25.84381 0 0 1 22.186667 13.653334 81.188571 81.188571 0 0 1 8.289523 41.447619 109.470476 109.470476 0 0 1-2.194285 24.380952 36.327619 36.327619 0 0 1-4.144762 13.409524 66.56 66.56 0 0 0-11.459048-10.48381 4.632381 4.632381 0 0 0-2.194286-1.219047 8.777143 8.777143 0 0 0-6.582857 0 8.289524 8.289524 0 0 0-4.388571 5.12l-2.194286 5.851428a8.777143 8.777143 0 0 0 3.169524 10.48381 67.779048 67.779048 0 0 1 8.045714 6.582857 19.017143 19.017143 0 0 1-9.020952 2.194286 24.380952 24.380952 0 0 1-21.455238-13.897143 82.407619 82.407619 0 0 1-8.533334-41.935238 86.308571 86.308571 0 0 1 8.533334-41.447619 24.380952 24.380952 0 0 1 21.942857-13.653334z m-183.588572-44.860952h348.16v-176.274286H337.67619z m269.897143-71.92381a8.777143 8.777143 0 0 1 8.777143 8.777143v17.554286a8.777143 8.777143 0 0 1-8.777143 8.533333h-191.634285a8.777143 8.777143 0 0 1-8.777143-8.533333v-17.554286a8.777143 8.777143 0 0 1 8.777143-8.777143z m0-69.485714a8.777143 8.777143 0 0 1 8.777143 8.533333v17.554286a8.777143 8.777143 0 0 1-8.777143 8.777143h-191.634285a8.777143 8.777143 0 0 1-8.777143-8.777143v-17.554286a8.777143 8.777143 0 0 1 8.777143-8.533333z" fill="#FFFFFF" p-id="155175"></path></svg>