<?xml version="1.0" standalone="no"?><!DOCTYPE svg PUBLIC "-//W3C//DTD SVG 1.1//EN" "http://www.w3.org/Graphics/SVG/1.1/DTD/svg11.dtd"><svg t="1718620664014" class="icon" viewBox="0 0 1024 1024" version="1.1" xmlns="http://www.w3.org/2000/svg" p-id="103381" xmlns:xlink="http://www.w3.org/1999/xlink" width="80" height="80"><path d="M0 0h1024v1024H0V0z m444.928 198.3488c7.918933 0-16.725333-61.2352-16.725333-61.2352S341.230933 175.616 335.9744 179.985067c-5.290667 4.369067 101.0688 18.363733 108.987733 18.363733z m-53.794133 45.4656l55.364266-34.0992c-13.380267 1.7408-121.992533-22.7328-121.992533-22.7328 1.774933 5.256533 52.736 56.832 52.736 56.832h13.892267z m80.1792 13.141333l-15.837867-37.614933-45.738667 27.989333 61.576534 9.6256z m-118.6816-18.807466l-38.673067-45.056s-30.754133 20.992-26.385067 26.248533c4.437333 5.256533 65.058133 18.773333 65.058134 18.773333z m-44.817067 5.666133c15.803733 11.3664 52.736 59.4944 52.736 59.4944l-14.062933-46.353067-38.673067-13.141333z m69.4272 72.6016l63.2832-47.240533-84.3776-12.219734s21.0944 48.9472 21.0944 59.460267z m72.942933-42.871467l-59.050666 50.756267c16.4864 3.4816 70.485333 23.586133 70.485333 23.586133 3.515733-57.685333-11.434667-74.3424-11.434667-74.3424z m21.128534 71.748267s86.1184-48.128 92.2624-50.756267l-101.410134-20.992s22.3232 31.505067 9.147734 71.748267z m77.346133 41.984c33.3824-56.866133 33.3824-89.224533 33.3824-89.224533l-92.501333 59.460266c15.598933 4.369067 59.118933 29.730133 59.118933 29.730134z m21.0944 0c43.9296-22.766933 138.8544-49.015467 138.8544-49.015467-20.206933-13.994667-115.131733-40.209067-115.131733-40.209066 0.887467 13.1072-23.722667 89.1904-23.722667 89.1904z m0 12.219733c28.706133 16.622933 58.88 64.7168 58.88 64.7168 55.364267-54.203733 88.7808-116.3264 88.7808-116.3264-13.175467 0.887467-147.6608 51.6096-147.6608 51.6096z m162.6112-51.6096c-13.2096 34.986667-80.008533 111.957333-80.008533 111.957334 34.304-13.994667 181.930667-26.248533 181.930666-26.248534-13.141333-27.101867-101.922133-85.674667-101.922133-85.674666z m-285.866667 20.138667c-18.6368-12.253867-60.996267-22.7328-60.996266-22.7328 4.744533 2.594133 5.632 75.195733 5.632 75.195733a4346.197333 4346.197333 0 0 0 55.364266-52.462933z m8.0896 14.848c-6.144 5.256533-63.488 52.462933-63.488 52.462933 9.489067 6.144 30.958933 24.507733 30.958934 24.507734 22.869333-28.8768 32.529067-76.970667 32.529066-76.970667z m16.725334-8.738133c0.853333 13.1072-20.241067 70.826667-20.241067 70.826666l75.605333-41.096533-55.364266-29.730133z m-40.448 98.816c8.8064 6.997333 15.633067 51.6096 15.633066 51.6096 7.714133-11.3664 80.1792-103.185067 80.1792-103.185067-57.1392 33.211733-95.812267 51.575467-95.812266 51.575467z m117.76-52.462934c-4.369067 10.478933-81.7152 96.187733-81.7152 96.187734 20.411733-7.850667 146.773333-47.2064 146.773333-47.2064-16.6912-25.361067-65.024-48.981333-65.024-48.981334z m-132.642134 71.714134c-6.075733 10.478933-112.571733 97.962667-112.571733 97.962666 16.725333-11.3664 127.453867-61.2352 127.453867-61.2352 1.7408-26.248533-14.882133-36.727467-14.882134-36.727466z m-59.835733 16.4864c21.0944-13.243733 46.592-35.7376 46.592-35.7376-7.031467-8.738133-21.981867-13.1072-21.981867-13.1072-0.887467 7.850667-24.576 48.8448-24.576 48.8448z m42.1888-10.376534c-37.9904 16.145067-70.314667 45.909333-70.314667 45.909334L292.864 590.165333l105.472-91.818666z m152.064 10.376534l-67.6864 22.869333s52.736 31.470933 72.0896 39.355733c0 0 1.7408-38.741333-4.4032-62.225066z m-1.7408 72.704l-78.2336-46.318934s2.833067 66.4576-8.260267 92.706134c0 0 75.0592-35.0208 86.493867-46.3872z m-86.493867 61.2352s42.530133 32.3584 82.090667 41.984c0 0 16.2816-43.7248 10.786133-90.965334 0 0-73.898667 43.7248-92.8768 48.981334z m-11.093333-101.444267l-59.938133 24.4736c18.944 44.544 49.390933 62.122667 49.390933 62.122667 19.3536-45.499733 10.581333-86.596267 10.581333-86.596267z m-71.645867 29.730133c2.218667 11.3664-58.436267 113.664-58.436266 113.664 77.346133-23.552 110.011733-45.431467 110.011733-45.431466-44.714667-40.2432-51.541333-68.232533-51.541333-68.232534z m-28.535466 10.478934c-10.581333 3.515733-64.170667 31.505067-64.170667 31.505066 1.7408 51.6096 13.175467 65.570133 13.175467 65.570134 25.4976-25.361067 50.9952-97.0752 50.9952-97.0752zM301.4656 717.824L228.693333 811.281067l3.857067 5.2224 135.611733-49.3568c-34.645333-19.0464-66.696533-49.322667-66.696533-49.322667zM240.810667 818.176c32.085333 29.422933 88.3712 37.205333 88.3712 37.205333l49.3568-74.410666-137.728 37.205333z m157.457066-37.205333c0.682667 5.188267-62.1568 81.237333-62.1568 81.237333 39.8336-1.911467 178.4832-55.296 178.4832-55.296-58.811733-0.853333-116.3264-25.941333-116.3264-25.941333z m90.282667 105.5744c8.635733-10.376533 29.696-70.075733 29.696-70.075734-69.870933 29.422933-154.4192 45.738667-154.4192 45.738667 28.2624 16.384 124.7232 24.337067 124.7232 24.337067z m-95.812267-126.7712c28.672-43.008 40.5504-98.235733 40.5504-98.235734-11.093333 7.7824-112.776533 41.540267-112.776533 41.540267a191.317333 191.317333 0 0 0 72.226133 56.661333z m21.2992-10.820267c21.674667 0.853333 131.242667-52.804267 131.242667-52.804267-23.825067-5.188267-87.927467-38.946133-87.927467-38.946133l-43.3152 91.7504z m-8.635733 18.158933c15.5648 18.193067 112.8448 35.498667 112.8448 35.498667 16.213333-20.343467 27.0336-99.5328 27.0336-99.5328-4.778667 9.5232-139.8784 64.034133-139.8784 64.034133zM268.288 628.1216c-86.869333 38.570667-97.518933 96.802133-97.518933 96.802133 15.9744 0 115.234133-28.706133 115.234133-28.706133-19.490133-41.847467-17.749333-68.096-17.749333-68.096z m-97.518933 104.174933s-4.437333 36.932267 44.3392 68.096c0 0 62.020267-74.6496 66.4576-89.429333 0 0-81.544533 21.333333-110.7968 21.333333z" fill="#52619B" p-id="103382"></path></svg>