<?xml version="1.0" standalone="no"?><!DOCTYPE svg PUBLIC "-//W3C//DTD SVG 1.1//EN" "http://www.w3.org/Graphics/SVG/1.1/DTD/svg11.dtd"><svg class="icon" width="200px" height="200.00px" viewBox="0 0 1024 1024" version="1.1" xmlns="http://www.w3.org/2000/svg"><path d="M911.146667 591.104L981.333333 619.093333 513.450667 981.333333 42.666667 619.136l70.186666-28.032 400.64 311.168 397.653334-311.168z m-552.661334 112.213333H425.813333V318.165333H358.485333v385.152z m119.893334 0h67.285333V318.165333h-67.285333v385.152z m116.992 0h67.242666V318.165333h-67.242666v385.152z m122.837333-51.029333h67.242667v-114.773333h-67.242667v114.773333z m-476.672 0h67.242667V384.426667H241.536v267.818666zM718.208 499.2h67.242667v-114.773333h-67.242667v114.773333zM513.450667 42.666667L981.333333 402.346667l-70.186666 30.549333-397.653334-311.168-400.64 311.168L42.666667 402.346667 513.450667 42.666667z" fill="#2B85FB" /></svg>