<?xml version="1.0" standalone="no"?><!DOCTYPE svg PUBLIC "-//W3C//DTD SVG 1.1//EN" "http://www.w3.org/Graphics/SVG/1.1/DTD/svg11.dtd"><svg class="icon" width="80px" height="80.00px" viewBox="0 0 1024 1024" version="1.1" xmlns="http://www.w3.org/2000/svg"><path d="M192 64h704a128 128 0 0 1 128 128v704a128 128 0 0 1-128 128H192a128 128 0 0 1-128-128V192a128 128 0 0 1 128-128z m-19.2 247.04V768h165.12c73.6 0 129.28-20.48 167.68-61.44 36.48-39.68 55.04-95.36 55.04-167.04 0-72.32-17.92-128-53.76-166.4-38.4-41.6-94.08-62.08-167.68-62.08H172.8z m69.76 59.52H326.4c57.6 0 99.84 13.44 126.72 40.96 25.6 26.88 39.04 69.12 39.04 128 0 57.6-13.44 99.84-39.68 127.36-26.88 27.52-69.76 41.6-127.36 41.6H242.56V370.56z m362.24 66.56l114.56 154.88L590.08 768h80l87.04-126.08L843.52 768h79.36l-128.64-176 114.56-154.88h-79.36l-72.32 104.96-72.96-104.96H604.8z" fill="#468CFF" /></svg>