<?xml version="1.0" standalone="no"?><!DOCTYPE svg PUBLIC "-//W3C//DTD SVG 1.1//EN" "http://www.w3.org/Graphics/SVG/1.1/DTD/svg11.dtd"><svg class="icon" width="200px" height="200.00px" viewBox="0 0 1024 1024" version="1.1" xmlns="http://www.w3.org/2000/svg"><path d="M187.960889 425.244444l25.6 7.623112c7.566222 104.448 78.449778 138.581333 163.726222 155.136 124.302222 24.120889 134.826667 70.257778 99.783111 197.859555-3.982222 14.563556-25.827556 33.792-39.936 34.247111-75.832889 2.787556-153.713778 10.638222-227.214222-3.015111-96.142222-17.92-146.204444-107.804444-115.655111-201.955555 12.970667-39.936 32.597333-77.596444 53.191111-114.972445l20.593778-37.376c6.826667-12.458667 13.539556-24.974222 19.911111-37.546667zM316.643556 339.626667c0 26.168889-1.763556 47.559111 0.284444 68.551111 7.509333 76.515556 52.508444 121.116444 140.970667 141.767111 110.08 25.713778 141.653333 68.039111 126.862222 181.475555-3.072 23.495111-25.144889 44.487111-38.456889 66.56l-18.147556-13.425777c0-21.788444-0.170667-43.576889 0-65.422223 0.853333-95.232-25.770667-128.568889-119.808-149.845333-114.915556-25.941333-149.560889-57.912889-155.704888-138.296889-3.470222-45.909333 13.198222-74.752 64-91.363555z m69.916444-61.269334l18.090667 9.728c0 14.734222 0.568889 29.468444-0.113778 44.202667-5.233778 114.232889 25.770667 155.761778 135.68 181.191111 106.382222 24.576 143.985778 75.491556 129.479111 183.068445-2.673778 19.740444-22.016 37.148444-33.678222 55.637333l-16.042667-7.850667c-0.967111-14.961778-2.161778-29.866667-2.730667-44.828444-4.266667-114.688-30.378667-146.602667-139.832888-170.552889-103.196444-22.584889-142.791111-72.817778-130.958223-177.322667 2.901333-25.6 26.168889-48.924444 40.106667-73.272889z m107.064889-42.496c0 35.726222-0.568889 59.448889 0.113778 83.171556 2.844444 97.450667 39.537778 142.563556 134.144 165.660444 79.018667 19.342222 118.385778 60.871111 128 131.527111 5.575111 40.675556-5.347556 68.608-53.077334 79.985778-9.671111-149.048889-24.632889-167.367111-165.888-207.303111-92.330667-26.112-141.084444-130.56-97.109333-214.471111 8.135111-15.473778 31.288889-23.04 53.816889-38.570667z m346.851555-10.467555c86.186667 35.953778 121.742222 125.212444 81.92 220.785778-25.6 61.269333-67.356444 115.768889-101.831111 173.283555l-24.462222 2.389333c-2.275556-117.304889-77.539556-145.92-168.675555-162.872888-89.486222-16.611556-135.793778-147.114667-82.830223-223.004445 5.688889-8.135111 15.928889-15.701333 25.429334-18.204444 90.737778-23.210667 182.215111-29.240889 270.449777 7.623111z" fill="#3F92FE" /></svg>