<?xml version="1.0" standalone="no"?><!DOCTYPE svg PUBLIC "-//W3C//DTD SVG 1.1//EN" "http://www.w3.org/Graphics/SVG/1.1/DTD/svg11.dtd"><svg class="icon" width="80px" height="80.00px" viewBox="0 0 1024 1024" version="1.1" xmlns="http://www.w3.org/2000/svg"><path d="M589.758464 184.60672l-102.514688-102.342656a140.845056 140.845056 0 0 0-45.666304-30.543872A141.04576 141.04576 0 0 0 387.674112 40.96a131.117056 131.117056 0 0 0-91.46368 36.769792 133.955584 133.955584 0 0 0-30.06464 43.433984 133.771264 133.771264 0 0 0 28.22144 147.521536l185.99936 185.683968a21.254144 21.254144 0 0 0 29.220864 0l80.048128-79.91296c5.033984-6.004736 88.764416-101.482496 0.12288-189.8496z" fill="#15A9CA" /><path d="M757.710848 348.106752c-19.521536-18.874368-39.780352-38.363136-58.068992-59.445248v-0.73728c-0.65536 1.921024-1.14688 3.8912-1.47456 5.885952a210.194432 210.194432 0 0 1-62.738432 117.170176c-107.917312 106.999808-217.063424 216.326144-322.646016 322.101248l-14.241792 14.094336a136.482816 136.482816 0 0 0-41.865216 75.501568 145.850368 145.850368 0 0 0 6.361088 61.411328 146.030592 146.030592 0 0 0 31.207424 53.305344 122.88 122.88 0 0 0 96.62464 41.426944c42.10688 0.6144 62.611456-4.902912 93.302784-34.684928a82243.305472 82243.305472 0 0 0 338.485248-332.886016c43.831296-43.507712 53.899264-115.576832 22.839296-164.110336a563.07712 563.07712 0 0 0-87.785472-99.033088z" fill="#52CAA3" /><path d="M163.49184 284.004352v452.018176a25.116672 25.116672 0 0 0 15.536128 23.22432 25.194496 25.194496 0 0 0 27.435008-5.451776l227.868672-227.479552a23.154688 23.154688 0 0 0 0-32.60416L206.462976 266.235904a24.559616 24.559616 0 0 0-17.555456-7.356416 25.43616 25.43616 0 0 0-17.887232 7.344128 25.350144 25.350144 0 0 0-7.528448 17.780736z" fill="#5268AD" /></svg>