<?xml version="1.0" standalone="no"?><!DOCTYPE svg PUBLIC "-//W3C//DTD SVG 1.1//EN" "http://www.w3.org/Graphics/SVG/1.1/DTD/svg11.dtd"><svg t="1718616536737" class="icon" viewBox="0 0 1024 1024" version="1.1" xmlns="http://www.w3.org/2000/svg" p-id="136257" xmlns:xlink="http://www.w3.org/1999/xlink" width="80" height="80"><path d="M512 0C230.4 0 0 230.4 0 512s230.4 512 512 512 512-230.4 512-512S793.6 0 512 0z m76.8 716.8c-5.12 10.24-15.36 15.36-25.6 15.36H409.6v61.44c0 15.36-10.24 25.6-25.6 25.6h-153.6c-15.36 0-25.6-10.24-25.6-25.6v-174.08c0-15.36 10.24-25.6 25.6-25.6h153.6c15.36 0 25.6 10.24 25.6 25.6v61.44h102.4c0-10.24 0-15.36 10.24-20.48 10.24-10.24 25.6-10.24 35.84 0l25.6 25.6c5.12 10.24 5.12 20.48 5.12 30.72z m0-389.12c-5.12 10.24-15.36 15.36-25.6 15.36H409.6v61.44c0 15.36-10.24 25.6-25.6 25.6h-153.6c-15.36 0-25.6-15.36-25.6-25.6V230.4c0-15.36 10.24-25.6 25.6-25.6h153.6c15.36 0 25.6 10.24 25.6 25.6v61.44h102.4c0-5.12 0-15.36 10.24-20.48 10.24-10.24 25.6-10.24 35.84 0l25.6 25.6c5.12 10.24 5.12 20.48 5.12 30.72z m230.4 465.92c0 15.36-10.24 25.6-25.6 25.6h-153.6c-15.36 0-25.6-10.24-25.6-25.6v-174.08c0-15.36 10.24-25.6 25.6-25.6h153.6c15.36 0 25.6 10.24 25.6 25.6v174.08z m0-389.12c0 15.36-10.24 25.6-25.6 25.6h-153.6c-15.36 0-25.6-10.24-25.6-25.6V230.4c0-15.36 10.24-25.6 25.6-25.6h153.6c15.36 0 25.6 10.24 25.6 25.6v174.08z" fill="#787FFF" p-id="136258"></path><path d="M256 256h102.4v122.88H256zM256 645.12h102.4V768H256z" fill="#787FFF" p-id="136259"></path></svg>