<?xml version="1.0" standalone="no"?><!DOCTYPE svg PUBLIC "-//W3C//DTD SVG 1.1//EN" "http://www.w3.org/Graphics/SVG/1.1/DTD/svg11.dtd"><svg t="1718616514278" class="icon" viewBox="0 0 1024 1024" version="1.1" xmlns="http://www.w3.org/2000/svg" p-id="133551" xmlns:xlink="http://www.w3.org/1999/xlink" width="80" height="80"><path d="M873.802848 150.201658A507.739145 507.739145 0 0 0 512.003891 0.001638C370.937933 0.001638 242.897229 56.894965 150.204935 150.201658A505.445389 505.445389 0 0 0 0.004915 512.000614c0 135.986928 54.067092 266.239468 150.20002 361.798957A509.705221 509.705221 0 0 0 512.003891 1023.99959c141.106918 0 269.106662-56.893326 361.798957-150.200019A509.705221 509.705221 0 0 0 1024.002867 512.000614c0-141.065958-56.893326-269.106662-150.200019-361.798956z m-97.279806 462.478435a269.311461 269.311461 0 0 1-200.212079 160.972478 274.84105 274.84105 0 0 1-246.332948-77.905764l-58.572683 56.893326a13.926372 13.926372 0 0 1-16.547807 2.867194A14.213092 14.213092 0 0 1 245.764424 741.785755v-155.852488c0-7.987184 6.840306-14.82749 14.78653-14.827491h159.86656c6.266867 0 11.960296 3.440633 14.213092 9.134062a14.745571 14.745571 0 0 1-2.867194 15.933408l-59.146122 57.999244a211.885656 211.885656 0 0 0 191.692417 61.439877 211.435097 211.435097 0 0 0 157.040326-125.13255 30.392259 30.392259 0 0 1 38.707122-15.359969 30.556099 30.556099 0 0 1 16.465887 37.519285zM778.243359 438.027002a15.07325 15.07325 0 0 1-14.786531 14.827491H604.163707a14.99133 14.99133 0 0 1-14.213092-9.134062 14.745571 14.745571 0 0 1 2.867195-15.933408l58.572682-57.999244a214.425171 214.425171 0 0 0-191.692416-61.439877 211.435097 211.435097 0 0 0-157.040326 125.132549 29.695941 29.695941 0 0 1-39.239602 16.506847c-5.11999-1.720317-9.093102-5.693429-13.107173-9.093101a28.016584 28.016584 0 0 1-3.399674-29.573061 270.704099 270.704099 0 0 1 200.826479-160.439999 274.390491 274.390491 0 0 1 246.332947 77.946724l58.572683-56.934286a13.762532 13.762532 0 0 1 16.506847-2.826235c5.693429 2.293755 9.093102 7.413745 9.093102 13.680613v155.279049z" fill="#FF6739" p-id="133552"></path></svg>