<?xml version="1.0" standalone="no"?><!DOCTYPE svg PUBLIC "-//W3C//DTD SVG 1.1//EN" "http://www.w3.org/Graphics/SVG/1.1/DTD/svg11.dtd"><svg class="icon" width="80px" height="80.00px" viewBox="0 0 1024 1024" version="1.1" xmlns="http://www.w3.org/2000/svg"><path d="M512 0c282.770286 0 512 229.229714 512 512s-229.229714 512-512 512S0 794.770286 0 512 229.229714 0 512 0zM362.642286 237.714286a73.252571 73.252571 0 0 0-35.84 63.122285v422.326858c0 25.965714 13.604571 50.029714 35.84 63.158857a71.68 71.68 0 0 0 72.996571 0l357.814857-211.163429c22.308571-13.129143 35.876571-37.193143 35.876572-63.158857 0-25.965714-13.604571-50.029714-35.84-63.158857L435.565714 237.677714a71.606857 71.606857 0 0 0-72.96 0z m37.302857 63.817143l356.352 210.285714c-0.109714 0.365714-0.146286 0.438857 0 0.365714l-356.388572 210.285714V301.531429z" fill="#60BE00" /></svg>